# xmcd CD database file
#
# Track frame offsets:
#	150
#	20514
#	44861
#	62489
#	83616
#	106170
#	127310
#	150078
#	171401
#	195665
#	214487
#
# Disc length: 3268 seconds
#
# Revision: 0
# Processed by: cddbd v1.5.2PL0 Copyright (c) Steve Scherf et al.
# Submitted via: CDex 1.77
#
DISCID=970cc20b
DTITLE=Solitudes - Sleeping under the Stars
DYEAR=2010
DGENRE=New Age
TTITLE0=A Magical Land
TTITLE1=The Great Bear Softly Sleeps
TTITLE2=First Star i See Tonight
TTITLE3=Gazing in Wonder
TTITLE4=Moonlight in the Stream
TTITLE5=Anything Is Possible
TTITLE6=Cozy and Warm
TTITLE7=Happiness
TTITLE8=Celestial Dance
TTITLE9=Sailing Among the Stars
TTITLE10=Sweet Dreams, Little One
EXTD=YEAR: 2010
EXTT0=
EXTT1=
EXTT2=
EXTT3=
EXTT4=
EXTT5=
EXTT6=
EXTT7=
EXTT8=
EXTT9=
EXTT10=
PLAYORDER=
